<?xml version="1.0" encoding="UTF-8"?>
<svg width="100%" viewBox="0 0 382 382" version="1.1" xmlns="http://www.w3.org/2000/svg" xmlns:xlink="http://www.w3.org/1999/xlink">
    <title>Combined Shape Copy 4</title>
    <defs>
        <linearGradient x1="50%" y1="0%" x2="50%" y2="100%" id="linearGradient-1">
            <stop stop-color="#EEEEEE" offset="0%"></stop>
            <stop stop-color="#D8D8D8" offset="100%"></stop>
        </linearGradient>
        <linearGradient x1="75.4945055%" y1="121.67239%" x2="41.8578297%" y2="-32.081044%" id="linearGradient-2">
            <stop stop-color="#00E0FF" offset="0%"></stop>
            <stop stop-color="#44A3FF" offset="24.0445297%"></stop>
            <stop stop-color="#A34EFF" offset="57.7980204%"></stop>
            <stop stop-color="#FA00FF" offset="100%"></stop>
            <stop stop-color="#FA00FF" offset="100%"></stop>
        </linearGradient>
        <path d="M191,0 C296.486387,0 382,85.5136128 382,191 C382,296.486387 296.486387,382 191,382 C85.5136128,382 0,296.486387 0,191 C0,85.5136128 85.5136128,0 191,0 Z M191.5,37 C106.172006,37 37,106.172006 37,191.5 C37,276.827994 106.172006,346 191.5,346 C276.827994,346 346,276.827994 346,191.5 C346,106.172006 276.827994,37 191.5,37 Z M291,171 L291,212 L92,212 L92,171 L291,171 Z" id="path-3"></path>
    </defs>
    <g id="Page-1" stroke="none" stroke-width="1" fill="none" fill-rule="evenodd">
        <g id="Combined-Shape-Copy-4">
            <use fill="url(#linearGradient-1)" xlink:href="#path-3"></use>
            <use fill="url(#linearGradient-2)" xlink:href="#path-3"></use>
        </g>
    </g>
</svg>