<?xml version="1.0" encoding="UTF-8" standalone="no"?><!DOCTYPE svg PUBLIC "-//W3C//DTD SVG 1.1//EN" "http://www.w3.org/Graphics/SVG/1.1/DTD/svg11.dtd"><svg width="100%" height="100%" viewBox="0 0 131 130" version="1.1" xmlns="http://www.w3.org/2000/svg" xmlns:xlink="http://www.w3.org/1999/xlink" xml:space="preserve" xmlns:serif="http://www.serif.com/" style="fill-rule:evenodd;clip-rule:evenodd;stroke-linejoin:round;stroke-miterlimit:2;"><g><g><path d="M65.033,0c-27.142,0 -35.08,0.028 -36.623,0.156c-5.57,0.463 -9.036,1.34 -12.812,3.22c-2.91,1.445 -5.205,3.12 -7.47,5.468c-4.125,4.282 -6.625,9.55 -7.53,15.812c-0.44,3.04 -0.568,3.66 -0.594,19.188c-0.01,5.176 0,11.988 0,21.125c0,27.12 0.03,35.05 0.16,36.59c0.45,5.42 1.3,8.83 3.1,12.56c3.44,7.14 10.01,12.5 17.75,14.5c2.68,0.69 5.64,1.07 9.44,1.25c1.61,0.07 18.02,0.12 34.44,0.12c16.42,0 32.84,-0.02 34.41,-0.1c4.4,-0.207 6.955,-0.55 9.78,-1.28c7.79,-2.01 14.24,-7.29 17.75,-14.53c1.765,-3.64 2.66,-7.18 3.065,-12.317c0.088,-1.12 0.125,-18.977 0.125,-36.81c0,-17.836 -0.04,-35.66 -0.128,-36.78c-0.41,-5.22 -1.305,-8.73 -3.127,-12.44c-1.495,-3.037 -3.155,-5.305 -5.565,-7.624c-4.301,-4.108 -9.561,-6.608 -15.829,-7.512c-3.037,-0.439 -3.642,-0.569 -19.182,-0.596l-21.16,0Z" style="fill:url(#_Radial1);fill-rule:nonzero;"/><path d="M65.033,0c-27.142,0 -35.08,0.028 -36.623,0.156c-5.57,0.463 -9.036,1.34 -12.812,3.22c-2.91,1.445 -5.205,3.12 -7.47,5.468c-4.125,4.282 -6.625,9.55 -7.53,15.812c-0.44,3.04 -0.568,3.66 -0.594,19.188c-0.01,5.176 0,11.988 0,21.125c0,27.12 0.03,35.05 0.16,36.59c0.45,5.42 1.3,8.83 3.1,12.56c3.44,7.14 10.01,12.5 17.75,14.5c2.68,0.69 5.64,1.07 9.44,1.25c1.61,0.07 18.02,0.12 34.44,0.12c16.42,0 32.84,-0.02 34.41,-0.1c4.4,-0.207 6.955,-0.55 9.78,-1.28c7.79,-2.01 14.24,-7.29 17.75,-14.53c1.765,-3.64 2.66,-7.18 3.065,-12.317c0.088,-1.12 0.125,-18.977 0.125,-36.81c0,-17.836 -0.04,-35.66 -0.128,-36.78c-0.41,-5.22 -1.305,-8.73 -3.127,-12.44c-1.495,-3.037 -3.155,-5.305 -5.565,-7.624c-4.301,-4.108 -9.561,-6.608 -15.829,-7.512c-3.037,-0.439 -3.642,-0.569 -19.182,-0.596l-21.16,0Z" style="fill:url(#_Radial2);fill-rule:nonzero;"/></g><g><path d="M90.605,55.049c0,-0.092 0.003,-0.183 0.003,-0.276c0,-16.415 -7.06,-29.721 -15.769,-29.721c-2.696,0 -5.234,1.279 -7.452,3.529c-0.624,0.641 -1.481,1.002 -2.375,1.002c-0.894,0 -1.75,-0.361 -2.374,-1.002c-2.22,-2.25 -4.757,-3.529 -7.453,-3.529c-8.708,0 -15.77,13.306 -15.77,29.721c0,0.093 0.004,0.184 0.004,0.276c-12.882,3.368 -21.407,9.199 -21.407,15.833c0,10.427 21.043,16.009 47,16.009c25.957,0 47,-5.581 47,-16.009c0,-6.634 -8.525,-12.465 -21.407,-15.833Z" style="fill:#fff;fill-rule:nonzero;"/><path d="M94.769,86.238c-19.838,4.341 -39.677,4.341 -59.515,0c-1.664,0 -2.887,1.667 -2.487,3.392l3.07,11.858c0.283,1.221 1.309,2.079 2.487,2.079l13.796,1.31c0.735,0.07 1.478,0.092 2.211,-0.012c2.217,-0.315 4.298,-1.414 5.78,-3.226c1.448,-1.77 3.119,-2.783 4.9,-2.783c1.782,0 3.453,1.013 4.9,2.783c1.482,1.813 3.563,2.911 5.781,3.226c0.732,0.104 1.475,0.083 2.21,0.012l13.796,-1.31c1.178,0 2.205,-0.858 2.487,-2.079l3.07,-11.858c0.402,-1.725 -0.82,-3.392 -2.486,-3.392Zm-37.509,11.017c-0.331,2.265 -4.411,3.466 -9.116,2.684c-4.704,-0.781 -8.251,-3.251 -7.92,-5.516c0.331,-2.265 4.411,-3.467 9.116,-2.684c4.704,0.783 8.251,3.252 7.92,5.516Zm24.62,2.684c-4.704,0.782 -8.786,-0.42 -9.116,-2.684c-0.33,-2.264 3.216,-4.734 7.921,-5.516c4.704,-0.782 8.786,0.421 9.116,2.684c0.329,2.265 -3.216,4.735 -7.921,5.516Z" style="fill:#fff;fill-rule:nonzero;"/></g></g><defs><radialGradient id="_Radial1" cx="0" cy="0" r="1" gradientUnits="userSpaceOnUse" gradientTransform="matrix(0,-128.829,119.854,0,34.5379,140.001)"><stop offset="0" style="stop-color:#fd5;stop-opacity:1"/><stop offset="0.1" style="stop-color:#fd5;stop-opacity:1"/><stop offset="0.5" style="stop-color:#ff543e;stop-opacity:1"/><stop offset="1" style="stop-color:#c837ab;stop-opacity:1"/></radialGradient><radialGradient id="_Radial2" cx="0" cy="0" r="1" gradientUnits="userSpaceOnUse" gradientTransform="matrix(11.3061,56.4668,-232.817,46.6167,-21.7798,9.36419)"><stop offset="0" style="stop-color:#3771c8;stop-opacity:1"/><stop offset="0.13" style="stop-color:#3771c8;stop-opacity:1"/><stop offset="1" style="stop-color:#60f;stop-opacity:0"/></radialGradient></defs></svg>