<svg viewBox="0 0 243 87" xmlns="http://www.w3.org/2000/svg" xmlns:xlink="http://www.w3.org/1999/xlink"><linearGradient id="a" x1="75.348774%" x2="19.314184%" y1="95.83573%" y2="-4.168289%"><stop offset="0" stop-color="#1e8e3e"/><stop offset="1" stop-color="#34a853"/></linearGradient><linearGradient id="b" x1="21.301678%" x2="59.783985%" y1="100.176733%" y2=".180967%"><stop offset="0" stop-color="#fcc934"/><stop offset="1" stop-color="#fbbc04"/></linearGradient><linearGradient id="c" x1=".000018%" x2="100%" y1="49.999873%" y2="49.999873%"><stop offset="0" stop-color="#d93025"/><stop offset="1" stop-color="#ea4335"/></linearGradient><g fill="none" fill-rule="evenodd"><rect fill="#1f2124" height="87" rx="20" width="242.684211" x=".157895"/><g fill-rule="nonzero"><g transform="translate(24 17)"><path d="m26.5 39.75c7.3177857 0 13.25-5.9322143 13.25-13.25s-5.9322143-13.25-13.25-13.25-13.25 5.9322143-13.25 13.25 5.9322143 13.25 13.25 13.25z" fill="#fff"/><path d="m15.1445131 33.1249995-11.56478376-19.8749995c-2.34494838 4.0286479-3.57972934 8.5989083-3.57972934 13.2512057s1.23414496 9.2226419 3.57880502 13.2514581c2.34466855 4.0288162 5.71705348 7.3741589 9.77803968 9.6996345 4.0609862 2.3253915 8.6674059 3.5489628 13.3561663 3.5477017l11.5647668-19.8750005v-.0034497c-1.1713421 2.0155019-2.8569113 3.6893933-4.8871924 4.853309-2.0302811 1.1639158-4.3336182 1.7768795-6.6784224 1.777216-2.3448042.0003366-4.6483956-.6118698-6.6790159-1.7752807-2.0305355-1.1633268-3.7166983-2.8367134-4.888634-4.8517946z" fill="url(#a)"/><path d="m37.9767858 33.1266405-11.4719909 19.8733595c4.65118.0006728 9.2205109-1.2234707 13.2486118-3.5493433 4.0281009-2.3257884 7.3729766-5.6712758 9.6983143-9.700096 2.3252535-4.0289043 3.5490357-8.59904 3.548279-13.2509534-.0008416-4.6519135-1.2262221-9.2215443-3.5529897-13.2496073h-22.9441502l-.0028601.0017668c2.3260106-.0011779 4.611307.6103049 6.6260724 1.7727785 2.0147655 1.1625577 3.6879184 2.8351331 4.8512181 4.8497115 1.1632998 2.0144942 1.7756956 4.2998986 1.7756956 6.6261918-.0000841 2.3263774-.6126482 4.6116976-1.776032 6.6261919z" fill="url(#b)"/><path d="m26.1319016 36.8055556c5.8948723 0 10.673654-4.7787626 10.673654-10.6736112s-4.7787817-10.6736111-10.673654-10.6736111c-5.8948722 0-10.6735683 4.7787625-10.6735683 10.6736111s4.7786961 10.6736112 10.6735683 10.6736112z" fill="#1a73e8"/><path d="m26.5009454 13.2493607h22.818499c-2.3123522-4.02847866-5.6386591-7.37382025-9.6445332-9.69961723-4.0058742-2.32578856-8.5501817-3.54974347-13.17589-3.54974347-4.6257084 0-9.1697649 1.22525881-13.1753044 3.55162783-4.00562313 2.3263606-7.33143648 5.67219851-9.64316124 9.70092947l11.40921604 19.8708444.0029281.0015983c-1.1575983-2.0139028-1.767477-4.2986815-1.7682299-6.6247645-.000753-2.326083.6077035-4.6113663 1.7640469-6.6259421 1.1562598-2.0145758 2.8198316-3.6875284 4.8231451-4.8504438 2.0033972-1.1629994 4.2760111-1.7749937 6.5892836-1.7744889z" fill="url(#c)"/></g><g fill="#fff"><g transform="translate(88 17)"><path d="m10.4966935 16-1.03118586-3.5400545h-5.18511364l-1.03118583 3.5400545h-3.24920817l5.01973478-14.93333333h3.68697574l5.03919108 14.93333333zm-1.75107031-6.1849228-1.03118582-3.45867393c-.06485446-.23057826-.15078661-.52727823-.25779646-.89009991s-.2140197-.73242507-.32102955-1.10881017c-.10700985-.37638511-.192942-.70360279-.25779646-.98165304-.06485445.27805025-.15402933.62222222-.26752462 1.03251589-.1134953.41029367-.22212651.79854678-.32589364 1.16475931-.10376712.36621253-.17834975.62730851-.22374786.78328792l-1.02145766 3.45867393z"/><path d="m17.999008 16-4.2531064-10.66666667h3.1848379l2.1565046 6.07751937c.1198058.3561916.2146521.7314649.2845388 1.1258199s.1181418.7473664.1447653 1.059034h.0798706c.0199676-.3371099.0682227-.6964818.1447653-1.0781157.0765426-.3816338.1780448-.7505466.3045065-1.1067382l2.1465208-6.07751937h3.1848378l-4.2531063 10.66666667z"/><path d="m32.5697585 4.26666667c1.4317542 0 2.5294325.33013685 3.2930348.99041056s1.1454034 1.66415925 1.1454034 3.01165662v7.52914155h-2.0330911l-.5631566-1.536147h-.0763603c-.3054409.4042492-.6172451.7343861-.9354128.9904106-.3181676.2560245-.6840603.4446741-1.0976782.5659489-.4136179.1212747-.9163228.1819121-1.5081146.1819121-.6299718 0-1.1947194-.1280122-1.6942425-.3840367-.4995232-.2560245-.8924602-.6484832-1.178811-1.1773759-.2863509-.5288927-.4295263-1.200957-.4295263-2.0161929 0-1.1992727.3977095-2.0835678 1.1931285-2.65288546.7954191-.56931763 1.9885477-.88429514 3.5793857-.94493253l1.8517356-.06063738v-.49520528c0-.59289884-.1463571-1.02746674-.4390713-1.3037037s-.6999688-.41435544-1.2217637-.41435544c-.5154315 0-1.021318.07748109-1.5176595.23244329s-.992683.35034932-1.4890245.58616136l-.9640479-2.08188344c.5663384-.31666188 1.2010828-.56594889 1.9042332-.74786104.7031505-.18191214 1.4301635-.27286821 2.1810391-.27286821zm1.5462946 6.29618143-1.1263134.0404249c-.9417761.02695-1.5956106.2054934-1.9615034.5356302-.3658927.3301369-.5488391.7647048-.5488391 1.3037037 0 .4716241.1304487.8068141.3913462 1.00557.2608974.1987558.6013368.2981338 1.021318.2981338.6236086 0 1.150176-.1953872 1.5797023-.5861614.4295262-.3907742.6442894-.9466169.6442894-1.667528z"/><path d="m42.1613174 4.50385604v11.49614396h-2.9141566v-11.49614396zm-1.452301-4.50385604c.4331424 0 .8057723.10796915 1.1178896.32390746.3121173.2159383.468176.61868037.468176 1.20822622 0 .58269066-.1560587.98543273-.468176 1.20822622-.3121173.22279348-.6847472.33419023-1.1178896.33419023-.4395122 0-.8137345-.11139675-1.1226669-.33419023-.3089325-.22279349-.4633987-.62553556-.4633987-1.20822622 0-.58954585.1544662-.99228792.4633987-1.20822622.3089324-.21593831.6831547-.32390746 1.1226669-.32390746z"/><path d="m48.6393443 16h-3.1721312v-16h3.1721312z"/><path d="m56.8894306 4.26666667c1.4317543 0 2.5294325.33013685 3.2930348.99041056s1.1454035 1.66415925 1.1454035 3.01165662v7.52914155h-2.0330911l-.5631567-1.536147h-.0763602c-.3054409.4042492-.6172452.7343861-.9354128.9904106s-.6840604.4446741-1.0976783.5659489c-.4136179.1212747-.9163228.1819121-1.5081145.1819121-.6299719 0-1.1947194-.1280122-1.6942426-.3840367-.4995231-.2560245-.8924602-.6484832-1.178811-1.1773759-.2863509-.5288927-.4295263-1.200957-.4295263-2.0161929 0-1.1992727.3977095-2.0835678 1.1931286-2.65288546.795419-.56931763 1.9885476-.88429514 3.5793857-.94493253l1.8517355-.06063738v-.49520528c0-.59289884-.1463571-1.02746674-.4390713-1.3037037s-.6999688-.41435544-1.2217637-.41435544c-.5154315 0-1.021318.07748109-1.5176595.23244329s-.992683.35034932-1.4890244.58616136l-.9640479-2.08188344c.5663383-.31666188 1.2010827-.56594889 1.9042332-.74786104.7031504-.18191214 1.4301634-.27286821 2.181039-.27286821zm1.5462946 6.29618143-1.1263134.0404249c-.9417761.02695-1.5956106.2054934-1.9615033.5356302-.3658928.3301369-.5488392.7647048-.5488392 1.3037037 0 .4716241.1304488.8068141.3913462 1.00557.2608975.1987558.6013368.2981338 1.0213181.2981338.6236085 0 1.1501759-.1953872 1.5797022-.5861614s.6442894-.9466169.6442894-1.667528z"/><path d="m67.5890805 0v3.6751269c0 .42639594-.0118162.84940779-.0354485 1.26903554s-.0523287.74450084-.0860891.97461929h.1215376c.2970919-.46700508.7022172-.86463621 1.2153759-1.19289341.5131587-.32825719 1.1782394-.49238578 1.9952421-.49238578 1.2693926 0 2.2990861.49746193 3.0890805 1.49238578.7899943.99492386 1.1849915 2.4534687 1.1849915 4.37563448 0 1.2927242-.1823064 2.3773266-.5469192 3.2538071-.3646127.8764806-.8743954 1.5363791-1.529348 1.9796955s-1.4145625.6649746-2.2788298.6649746c-.8305069 0-1.4854595-.1489002-1.9648578-.4467005s-.8676433-.6328257-1.1647352-1.0050761h-.2126908l-.5165348 1.2487309h-2.3598549v-15.7969543zm2.218061 6.7106599c-.5401671 0-.9689247.11167513-1.2862728.33502538-.3173482.22335025-.5486072.55837563-.6937771 1.00507614s-.224507 1.01184433-.2380111 1.69543147v.33502541c0 1.1032149.1620501 1.9475465.4861503 2.5329949.3241003.5854484.914908.8781726 1.7724232.8781726.6346964 0 1.139415-.2944163 1.5141559-.8832487.3747409-.5888325.5621113-1.4382403.5621113-2.5482234 0-1.10998307-.1890584-1.94585448-.5671754-2.50761421-.3781169-.56175973-.8946517-.84263959-1.5496043-.84263959z"/><path d="m80.3606557 16h-3.1721311v-16h3.1721311z"/><path d="m88.4203326 4.26666667c.9547191 0 1.7770094.20078611 2.466871.60235835.6898615.40157224 1.2226563.98368325 1.5983845 1.74633305.3757282.76264979.5635922 1.69402742.5635922 2.79413287v1.49830316h-6.6614754c.0307974.8706356.2694772 1.5539833.7160393 2.0500431.4465622.4960598 1.0671296.7440897 1.8617022.7440897.6590642 0 1.262693-.0742402 1.8108866-.2227207.5481935-.1484805 1.1117857-.3712012 1.6907767-.6681622v2.3891861c-.5112367.2767136-1.0455714.479187-1.6030042.6074202-.5574327.1282331-1.2334354.1923497-2.0280081.1923497-1.0347923 0-1.9510146-.2092225-2.748667-.6276675s-1.4228394-1.0562362-1.8755611-1.9133736c-.4527216-.8571374-.6790824-1.9369955-.6790824-3.2395744 0-1.32282616.2048026-2.4246189.6144079-3.30537817.4096053-.88075928.9808969-1.54217237 1.7138748-1.98423929.7329778-.44206692 1.5860655-.66310037 2.559263-.66310037zm.0184785 2.19683635c-.5481936 0-1.0024551.19234973-1.3627845.57704918-.3603295.38469945-.5682119.98874509-.6236472 1.8121369h3.9543849c-.0061595-.4589397-.0816131-.86726105-.2263608-1.22496405-.1447478-.357703-.3603295-.64116576-.6467452-.85038827s-.6513648-.31383376-1.0948472-.31383376z"/><path d="m107.837425 6.92278239h-2.645948v9.07721761h-3.056872v-9.07721761h-1.683785v-1.50095725l1.683785-.83726866v-.83726867c0-.97340991.162031-1.7306956.486093-2.27185705.324062-.54116146.781757-.92235695 1.373086-1.14358647.59133-.22122953 1.291237-.33184429 2.099721-.33184429.59467 0 1.135887.0493512 1.62365.14805361.487763.0987024.885323.20931716 1.192681.33184428l-.781757 2.28717295c-.233859-.07487769-.487764-.14294831-.761713-.20421187s-.587988-.09189535-.942118-.09189535c-.427628 0-.739997.13103595-.937106.39310785-.19711.2620719-.295665.59731972-.295665 1.00574346v.71474155h2.645948z"/><path d="m118.42623 10.1181478c0 .9448759-.121931 1.7817659-.365791 2.5106701-.24386.7289043-.598269 1.3447609-1.063229 1.8475698s-1.024212.8824465-1.677757 1.1389128-1.390002.3846995-2.209372.3846995c-.767346 0-1.471289-.1282332-2.111828-.3846995s-1.19654-.6361039-1.668002-1.1389128c-.471463-.5028089-.835627-1.1186655-1.092493-1.8475698-.256866-.7289042-.385299-1.5657942-.385299-2.5106701 0-1.25533503.214597-2.31832036.64379-3.18895597.429194-.8706356 1.04047-1.5320487 1.833828-1.98423928.793358-.45219059 1.739535-.67828588 2.83853-.67828588 1.020961 0 1.926495.22609529 2.716601.67828588.790107.45219058 1.411137 1.11360368 1.863091 1.98423928.451954.87063561.677931 1.93362094.677931 3.18895597zm-7.540152 0c0 .7424025.078035 1.3666955.234105 1.8728789.156071.5061835.399931.8875084.73158 1.1439747.33165.2564663.764095.3846995 1.297336.3846995.526737 0 .954305-.1282332 1.282703-.3846995.328399-.2564663.569007-.6377912.721826-1.1439747.152819-.5061834.229228-1.1304764.229228-1.8728789 0-.74915154-.076409-1.37175723-.229228-1.86781706-.152819-.49605982-.395053-.86894832-.726703-1.11866551-.331649-.24971719-.764095-.37457579-1.297335-.37457579-.786855 0-1.357488.2800882-1.711897.8402646-.35441.5601764-.531615 1.40044099-.531615 2.52079376z"/><path d="m127.95135 5.33333333c.156109 0 .337672.00780412.544687.02341235.207015.01560824.375003.03589894.503963.06087211l-.234165 2.67837285c-.10181-.03121647-.246042-.05462882-.432695-.07023705-.186653-.01560824-.347854-.02341235-.483601-.02341235-.400456 0-.789033.0468247-1.165733.1404741s-.714372.24504926-1.013017.45419959c-.298644.20915032-.534506.48385523-.707584.82411472-.173078.34025948-.259617.75699935-.259617 1.25021945v5.3286509h-3.105227v-10.47000293h2.351827l.458149 1.76060872h.152716c.223983-.35586772.503963-.68207979.839938-.97863623.335975-.29655643.719462-.53380158 1.150461-.71173544s.897631-.26690079 1.399898-.26690079z"/></g><g transform="translate(88 43)"><path d="m11.7101118 5.52934132c-1.012828 0-1.90900999.19832335-2.6885461.59497006-.77953611.3966467-1.43389123.96862275-1.96306538 1.71592814s-.93032229 1.64982036-1.20344443 2.70754488c-.27312214 1.0577246-.40968321 2.2476647-.40968321 3.5698204 0 1.7820359.21906671 3.302515.65720015 4.5614371.43813343 1.2589222 1.11809376 2.2189222 2.03988098 2.88.92178723.6610779 2.11100659.9916168 3.56765799.9916168 1.0128279 0 2.0285009-.1149701 3.0470189-.3449102 1.0185179-.2299401 2.1252316-.5576048 3.320141-.982994v4.4838323c-1.1038687.4598803-2.1906672.7904192-3.2603956.9916168s-2.2703278.3017964-3.6017982.3017964c-2.57190016 0-4.68575173-.537485-6.34155471-1.6124551-1.65580297-1.07497-2.88200758-2.5810778-3.67861383-4.5183233-.79660624-1.9372456-1.19490936-4.1992815-1.19490936-6.7861078 0-1.908503.25605201-3.6560479.76815602-5.24263476.51210401-1.58658682 1.2631899-2.96047904 2.25325766-4.12167664.99006776-1.16119761 2.21342735-2.05796408 3.67007876-2.69029941 1.45665142-.63233533 3.12952453-.94850299 5.01861936-.94850299 1.2404297 0 2.4837044.15808383 3.7298242.4742515 1.2461198.31616766 2.4381841.75017964 3.576193 1.30203593l-1.7070133 4.34586826c-.9331674-.44838323-1.8720247-.83928144-2.8165721-1.17269461-.9445474-.33341318-1.8720247-.50011976-2.7824318-.50011976z"/><path d="m27.1811078 0v5.50064267c0 .96015425-.0300284 1.87403599-.090085 2.74164525-.0600567.86760925-.1064642 1.48071979-.1392223 1.83933158h.2620655c.3930982-.67095112.8599024-1.21465292 1.4004126-1.63110536.5405101-.41645244 1.1383471-.72300771 1.7935108-.91966581.6551638-.1966581 1.3594649-.29498715 2.1129033-.29498715 1.321247 0 2.4732433.24582262 3.455989.73746787.9827457.49164524 1.7471034 1.26092545 2.2930732 2.30784065.5459699 1.0469151.8189548 2.4032776.8189548 4.0690874v12.6497429h-4.9956239v-11.3309769c0-1.3881748-.2402268-2.4350899-.7206802-3.1407455-.4804534-.7056555-1.2229724-1.0584833-2.2275569-1.0584833s-1.7962407.2458227-2.3749687.7374679c-.578728.4916453-.9882054 1.214653-1.2284321 2.1690231-.2402268.9543702-.3603401 2.1198587-.3603401 3.4964653v9.1272494h-4.9956239v-27z"/><path d="m55.252274 7.56c.2673826 0 .5783601.014223.9329325.04266901.3545725.028446.6422994.06542581.8631806.11093942l-.4010738 4.88133447c-.1743799-.056892-.4214181-.099561-.7411146-.128007s-.595798-.042669-.8283046-.042669c-.6858943 0-1.3514443.085338-1.9966499.256014-.6452057.1706761-1.2235657.4466023-1.7350801.8277788s-.9154945.8818262-1.2119404 1.5019491c-.2964458.6201229-.4446687 1.3796312-.4446687 2.278525v9.7114662h-5.3185873v-19.08158033h4.0281759l.7847096 3.20870943h.2615699c.3836358-.648569.8631805-1.24309047 1.4386342-1.78356457s1.2322847-.97285338 1.970493-1.29713784 1.5374495-.48642669 2.3977237-.48642669z"/><path d="m77.1209677 17.2548404c0 1.5654875-.2070996 2.9520621-.6212988 4.1597239s-1.0161687 2.2280241-1.8059085 3.0610871-1.7396366 1.4620535-2.8496905 1.8869716c-1.1100539.424918-2.3609355.637377-3.7526448.637377-1.3033468 0-2.4990018-.212459-3.5869651-.637377-1.0879632-.4249181-2.0323374-1.0539086-2.8331225-1.8869716s-1.4193226-1.8534253-1.8556124-3.0610871c-.4362899-1.2076618-.6544348-2.5942364-.6544348-4.1597239 0-2.079862.3644953-3.8410354 1.0934859-5.2835203s1.7672499-2.53832614 3.114778-3.28752372c1.3475281-.74919759 2.954621-1.12379638 4.8212787-1.12379638 1.734114 0 3.2721737.37459879 4.6141792 1.12379638 1.3420054.74919758 2.3968327 1.84503882 3.1644819 3.28752372.7676491 1.4424849 1.1514737 3.2036583 1.1514737 5.2835203zm-12.8070393 0c0 1.2300259.1325437 2.2643658.3976312 3.1030198s.6792867 1.4704401 1.2425976 1.8953581c.563311.424918 1.2978242.637377 2.2035398.637377.8946703 0 1.6208995-.212459 2.1786878-.637377s.9664648-1.0567041 1.2260296-1.8953581c.2595649-.838654.3893473-1.8729939.3893473-3.1030198 0-1.241208-.1297824-2.2727524-.3893473-3.0946333-.2595648-.821881-.6710027-1.4396894-1.2343136-1.8534254s-1.2978241-.620604-2.2035397-.620604c-1.3364828 0-2.3057089.4640553-2.9076784 1.3921657s-.9029543 2.3202761-.9029543 4.176497z"/><path d="m103.403468 7.56c2.127835 0 3.737711.5546971 4.829626 1.66409131 1.091916 1.10939419 1.637874 2.88726949 1.637874 5.33362599v12.4422827h-5.140403v-11.1451449c0-1.3654082-.229582-2.3951536-.688746-3.0892361-.459165-.6940826-1.17031-1.0411238-2.133435-1.0411238-1.355096 0-2.318221.4921159-2.8893768 1.4763476-.5711558.9842318-.8567337 2.3923091-.8567337 4.2242318v9.5749254h-5.1236037v-11.1451449c0-.9102721-.1007922-1.6726251-.3023766-2.2870588s-.5095606-1.075259-.9239286-1.3824758c-.4143679-.3072169-.9463268-.4608253-1.5958765-.4608253-.9519264 0-1.6994686.241791-2.2426265.7253731-.543158.4835821-.9295281 1.1947322-1.1591104 2.1334504-.2295822.9387182-.3443733 2.0850922-.3443733 3.439122v8.9775593h-5.1236037v-19.08158033h3.9140972l.6887467 2.44066723h.285578c.3807705-.6599473.8595335-1.1947322 1.4362889-1.60435468.5767553-.40962247 1.2123062-.71115013 1.9066525-.90458297.6943463-.19343283 1.3998917-.29014925 2.1166362-.29014925 1.3774935 0 2.5450032.22756804 3.5025291.68270413.9575259.45513608 1.693869 1.16059701 2.2090291 2.11638277h.4535649c.5599567-.97854256 1.3522954-1.68969269 2.3770162-2.13345038 1.024721-.44375768 2.080239-.66563652 3.166555-.66563652z"/><path d="m122.77814 7.56c1.695793 0 3.156363.33266609 4.38171.99799827 1.225347.66533219 2.171709 1.62978433 2.839085 2.89335633.667377 1.2635721 1.001065 2.8066954 1.001065 4.6293702v2.4824158h-11.832258c.054703 1.4424849.478651 2.5746679 1.271845 3.3965488.793193.8218809 1.895458 1.2328214 3.306796 1.2328214 1.170644 0 2.242823-.1230026 3.216536-.3690078s1.974778-.6150129 3.003194-1.1070233v3.958447c-.908069.4584642-1.857166.7939258-2.847291 1.0063848-.990124.212459-2.190855.3186885-3.602192.3186885-1.838021 0-3.465435-.3466437-4.882242-1.039931-1.416808-.6932873-2.527279-1.7499913-3.331413-3.1701121s-1.206201-3.2092494-1.206201-5.3673857c0-2.1916825.363775-4.0171527 1.091325-5.4764107s1.74229-2.55509924 3.044222-3.28752374c1.301931-.73242451 2.817204-1.09863676 4.545819-1.09863676zm.032821 3.6397584c-.973713 0-1.780582.3186885-2.420607.9560656-.640025.637377-1.00927 1.6381708-1.107736 3.0023813h7.023865c-.010941-.7603796-.144963-1.4368938-.402067-2.0295427-.257104-.5926488-.640025-1.062295-1.148763-1.4089387s-1.156968-.5199655-1.944692-.5199655z"/></g></g></g></g></svg>