<svg viewBox="0 0 243 87" xmlns="http://www.w3.org/2000/svg" xmlns:xlink="http://www.w3.org/1999/xlink"><linearGradient id="a" x1="87.294101%" x2="9.330812%" y1="15.494753%" y2="93.161498%"><stop offset="0" stop-color="#fff44f"/><stop offset=".05" stop-color="#fff44f"/><stop offset=".11" stop-color="#ffe847"/><stop offset=".23" stop-color="#ffc830"/><stop offset=".37" stop-color="#ff980e"/><stop offset=".4" stop-color="#ff8b16"/><stop offset=".46" stop-color="#ff672a"/><stop offset=".53" stop-color="#ff3647"/><stop offset=".71" stop-color="#e31587"/><stop offset="1" stop-color="#e31587"/></linearGradient><radialGradient id="b" cx="86.531643%" cy="-12.747763%" gradientTransform="matrix(.812678 0 0 1 .162093 0)" r="128.431326%"><stop offset="0" stop-color="#ffbd4f"/><stop offset=".13" stop-color="#ffbd4f"/><stop offset=".19" stop-color="#ffac31"/><stop offset=".25" stop-color="#ff9d17"/><stop offset=".28" stop-color="#ff980e"/><stop offset=".4" stop-color="#ff563b"/><stop offset=".47" stop-color="#ff3750"/><stop offset=".71" stop-color="#f5156c"/><stop offset=".78" stop-color="#eb0878"/><stop offset=".86" stop-color="#e50080"/><stop offset="1" stop-color="#e50080"/></radialGradient><radialGradient id="c" cx="47.779191%" cy="39.705625%" gradientTransform="matrix(.812678 0 0 1 .089501 0)" r="128.431326%"><stop offset="0" stop-color="#960e18"/><stop offset=".3" stop-color="#960e18"/><stop offset=".35" stop-color="#b11927" stop-opacity=".74"/><stop offset=".44" stop-color="#db293d" stop-opacity=".34"/><stop offset=".5" stop-color="#f5334b" stop-opacity=".09"/><stop offset=".53" stop-color="#ff3750" stop-opacity="0"/><stop offset="1" stop-color="#ff3750" stop-opacity="0"/></radialGradient><radialGradient id="d" cx="51.455632%" cy="-28.519821%" gradientTransform="matrix(1 0 0 .588871 0 -.117253)" r="314.965291%"><stop offset="0" stop-color="#fff44f"/><stop offset=".13" stop-color="#fff44f"/><stop offset=".25" stop-color="#ffdc3e"/><stop offset=".51" stop-color="#ff9d12"/><stop offset="1" stop-color="#ff980e"/></radialGradient><radialGradient id="e" cx="19.318578%" cy="110.06288%" gradientTransform="matrix(1 0 0 .91217 0 .096668)" r="111.740444%"><stop offset="0" stop-color="#3a8ee6"/><stop offset=".35" stop-color="#3a8ee6"/><stop offset=".47" stop-color="#5c79f0"/><stop offset=".67" stop-color="#9059ff"/><stop offset="1" stop-color="#c139e6"/></radialGradient><radialGradient id="f" cx="56.811316%" cy="36.046448%" gradientTransform="matrix(.97199563 -.21435898 .23499894 .88662525 -.068799 .162648)" r="59.254362%"><stop offset="0" stop-color="#9059ff" stop-opacity="0"/><stop offset=".21" stop-color="#9059ff" stop-opacity="0"/><stop offset=".28" stop-color="#8c4ff3" stop-opacity=".06"/><stop offset=".75" stop-color="#7716a8" stop-opacity=".45"/><stop offset=".98" stop-color="#6e008b" stop-opacity=".6"/><stop offset="1" stop-color="#6e008b" stop-opacity=".6"/></radialGradient><radialGradient id="g" cx="208.497563%" cy="-99.419403%" gradientTransform="matrix(1 0 0 .996305 0 -.003674)" r="293.282475%"><stop offset="0" stop-color="#ffe226"/><stop offset=".12" stop-color="#ffdb27"/><stop offset=".29" stop-color="#ffc82a"/><stop offset=".5" stop-color="#ffa930"/><stop offset=".73" stop-color="#ff7e37"/><stop offset=".79" stop-color="#ff7139"/><stop offset="1" stop-color="#ff7139"/></radialGradient><radialGradient id="h" cx="79.697775%" cy="-40.924947%" gradientTransform="matrix(.839454 0 0 1 .127952 0)" r="193.848967%"><stop offset="0" stop-color="#fff44f"/><stop offset=".11" stop-color="#fff44f"/><stop offset=".46" stop-color="#ff980e"/><stop offset=".62" stop-color="#ff5634"/><stop offset=".72" stop-color="#ff3647"/><stop offset=".9" stop-color="#e31587"/><stop offset="1" stop-color="#e31587"/></radialGradient><radialGradient id="i" cx="7.991329%" cy="-10.366933%" gradientTransform="matrix(.10494492 .47077994 -.99447804 .04968029 -.03157 -.13614)" r="348.796223%"><stop offset="0" stop-color="#fff44f"/><stop offset=".06" stop-color="#ffe847"/><stop offset=".17" stop-color="#ffc830"/><stop offset=".3" stop-color="#ff980e"/><stop offset=".36" stop-color="#ff8b16"/><stop offset=".46" stop-color="#ff672a"/><stop offset=".57" stop-color="#ff3647"/><stop offset=".74" stop-color="#e31587"/><stop offset="1" stop-color="#e31587"/></radialGradient><radialGradient id="j" cx="17.542808%" cy="-42.106115%" gradientTransform="matrix(.981484 0 0 1 .003248 0)" r="238.662025%"><stop offset="0" stop-color="#fff44f"/><stop offset=".14" stop-color="#fff44f"/><stop offset=".48" stop-color="#ff980e"/><stop offset=".59" stop-color="#ff5634"/><stop offset=".66" stop-color="#ff3647"/><stop offset=".9" stop-color="#e31587"/><stop offset="1" stop-color="#e31587"/></radialGradient><radialGradient id="k" cx="156.177083%" cy="-45.104229%" gradientTransform="matrix(.895501 0 0 1 .163204 0)" r="312.868028%"><stop offset="0" stop-color="#fff44f"/><stop offset=".09" stop-color="#fff44f"/><stop offset=".23" stop-color="#ffe141"/><stop offset=".51" stop-color="#ffaf1e"/><stop offset=".63" stop-color="#ff980e"/><stop offset="1" stop-color="#ff980e"/></radialGradient><linearGradient id="l" x1="86.339291%" x2="20.025064%" y1="15.080389%" y2="83.569898%"><stop offset="0" stop-color="#fff44f" stop-opacity=".8"/><stop offset=".17" stop-color="#fff44f" stop-opacity=".8"/><stop offset=".27" stop-color="#fff44f" stop-opacity=".63"/><stop offset=".49" stop-color="#fff44f" stop-opacity=".22"/><stop offset=".6" stop-color="#fff44f" stop-opacity="0"/><stop offset="1" stop-color="#fff44f" stop-opacity="0"/></linearGradient><g fill="none" fill-rule="evenodd"><rect fill="#20123a" height="87" rx="20" width="242.684211" x=".157895"/><g fill-rule="nonzero"><g fill="#fff"><g transform="translate(94 42)"><path d="m18.9734043 6.65782907v-4.72925764h-18.9734043v24.42857147h5.30824921v-9.6718653h12.37395929v-4.7292576h-12.37395929v-5.29819093z"/><path d="m25.2260975 5.58234393c1.6025114 0 2.9068812-1.27192647 2.9068812-2.82650326 0-1.44858291-1.3043698-2.75584067-2.9068812-2.75584067-1.6770469 0-2.9814166 1.30725776-2.9814166 2.75584067 0 1.55457679 1.3043697 2.82650326 2.9814166 2.82650326zm-2.7578104 20.77479897h5.4410854v-18.26627733h-5.4410854z"/><path d="m37.3816778 11.5203889v-3.38320283h-5.3231672v18.21995683h5.3231672v-8.7046989c0-3.4184445 2.5157433-5.6034297 6.4534286-5.6034297v-4.33472859c-2.8803439 0-5.213787 1.44490954-6.4534286 3.80610319z"/><path d="m55.7017717 22.4013731c-2.2129592 0-3.8454701-1.3546343-4.4621964-3.3509374h13.5317013c0-6.9514127-3.4464119-11.33614999-9.323451-11.33614999-5.477981 0-9.6499533 4.02825459-9.6499533 9.58938479 0 5.6680749 4.3533624 9.6963295 9.9401774 9.6963295 2.7571295 0 5.9858732-1.1407447 7.6546622-2.8518616l-3.3738559-3.3865857c-1.0157845.9625033-2.8296855 1.6398204-4.3170843 1.6398204zm-.036278-10.0884605c2.1404031 0 3.5189679 1.1763929 4.0268602 2.9944547h-8.3802226c.6892824-1.8537101 2.3580713-2.9944547 4.3533624-2.9944547z"/><path d="m74.9909343 6.89285714c0-1.21428571.792692-2.07142857 1.7655412-2.07142857.720629 0 1.4412581.25 1.8015726.60714286l1.2611008-3.17857143c-1.0809435-.96428571-2.7744218-1.60714286-4.2877428-1.60714286-3.2788622 0-5.5848751 2.32142857-5.5848751 5.64285715v1.60714285h-2.5582331v4.21428576h2.5582331v14.25h5.0444033v-14.25h4.0355227v-4.21428576h-4.0355227z"/><path d="m91.3045779 27c5.5020088 0 10.1049961-4.4203855 10.1049961-9.6606813 0-5.2402957-4.6029873-9.62503299-10.1049961-9.62503299-5.5379697 0-10.1769183 4.38473729-10.1769183 9.62503299 0 5.2402958 4.6389486 9.6606813 10.1769183 9.6606813zm0-4.3847373c-2.8049457 0-5.1424004-2.4240823-5.1424004-5.275944 0-2.8518616 2.3374547-5.2402957 5.1424004-5.2402957 2.7689848 0 5.1064395 2.3884341 5.1064395 5.2402957 0 2.8518617-2.3374547 5.275944-5.1064395 5.275944z"/><path d="m123 26.3571429-6.957566-9.5918763 6.627997-9.05098089h-5.63929l-3.808352 5.19259469-3.771733-5.19259469h-5.785765l6.664615 9.15915999-6.957566 9.4836972h5.639291l4.13792-5.6253109 4.101302 5.6253109z"/></g><g transform="translate(94 18)"><path d="m10.9607843 14.762533h3.254902l-5.4901961-13.59498683h-3.23529412l-5.49019608 13.59498683h3.23529412l.8627451-2.1372032h5.99999998zm-5.86274508-4.610818 2-4.96701843 2 4.96701843z"/><path d="m19.1176471 14.762533h2.6470588l4.3333333-10.23087073h-2.9803921l-2.6666667 6.90633243-2.7254902-6.90633243h-3z"/><path d="m31.4705882 4.29419525c-1.4117647 0-2.8039215.39577836-4.2352941 1.12796834l.9607843 1.91952506c.8039216-.41556728 1.6862745-.73218997 2.627451-.73218997 1.6666667 0 2.3333333.94986807 2.3333333 2.03825858v.19788918c-.8627451-.33641161-1.7647058-.51451188-2.5882352-.51451188-2.3529412 0-4.2156863 1.38522428-4.2156863 3.40369394 0 1.9591029 1.6666666 3.2651715 3.8235294 3.2651715 1.0980392 0 2.2549019-.4353562 2.9803921-1.2664908v1.0290238h2.7647059v-6.11477574c0-2.67150396-1.8039215-4.35356201-4.4509804-4.35356201zm-.6470588 8.70712405c-.9803921 0-1.7058823-.5145119-1.7058823-1.3456465 0-.8311345.8235294-1.444591 1.8627451-1.444591.7843137 0 1.5294117.1385224 2.1764705.3759894v.9498681c-.1960784.9498681-1.2352941 1.46438-2.3333333 1.46438z"/><path d="m39.7647059 3.12664908c.8431372 0 1.5294117-.71240106 1.5294117-1.58311346 0-.81134565-.6862745-1.54353562-1.5294117-1.54353562-.882353 0-1.5686275.73218997-1.5686275 1.54353562 0 .8707124.6862745 1.58311346 1.5686275 1.58311346zm-1.4509804 11.63588392h2.8627451v-10.23087073h-2.8627451z"/><path d="m43.6666667 14.762533h2.8627451v-13.83245384h-2.8627451z"/><path d="m53.5490196 4.29419525c-1.4117647 0-2.8039216.39577836-4.2352941 1.12796834l.9607843 1.91952506c.8039216-.41556728 1.6862745-.73218997 2.627451-.73218997 1.6666667 0 2.3333333.94986807 2.3333333 2.03825858v.19788918c-.8627451-.33641161-1.7647059-.51451188-2.5882353-.51451188-2.3529412 0-4.2156863 1.38522428-4.2156863 3.40369394 0 1.9591029 1.6666667 3.2651715 3.8235295 3.2651715 1.0980392 0 2.2549019-.4353562 2.9803921-1.2664908v1.0290238h2.7647059v-6.11477574c0-2.67150396-1.8039216-4.35356201-4.4509804-4.35356201zm-.6470588 8.70712405c-.9803922 0-1.7058824-.5145119-1.7058824-1.3456465 0-.8311345.8235294-1.444591 1.8627451-1.444591.7843138 0 1.5294118.1385224 2.1764706.3759894v.9498681c-.1960784.9498681-1.2352941 1.46438-2.3333333 1.46438z"/><path d="m66.6666667 4.29419525c-1.4117647 0-2.5882353.61345647-3.3921569 1.66226913v-5.02638522h-2.8627451v13.83245384h2.8627451v-1.444591c.8039216 1.0686015 1.9803922 1.682058 3.3921569 1.682058 2.7058823 0 4.6666666-2.2163588 4.6666666-5.36279683 0-3.12664908-1.9607843-5.34300792-4.6666666-5.34300792zm-.8235294 8.27176785c-1.3921569 0-2.4117648-1.0290238-2.5686275-2.5329816v-.7915567c.1568627-1.48416886 1.1764706-2.51319261 2.5686275-2.51319261 1.5882352 0 2.7058823 1.20712401 2.7058823 2.90897098 0 1.72163593-1.1176471 2.92875993-2.7058823 2.92875993z"/><path d="m73.3529412 14.762533h2.8627451v-13.83245384h-2.8627451z"/><path d="m83.4901961 12.4472296c-1.1960785 0-2.0784314-.7519789-2.4117647-1.8601584h7.3137255c0-3.85883901-1.8627451-6.29287595-5.0392157-6.29287595-2.9607843 0-5.2156863 2.23614776-5.2156863 5.323219 0 3.14643795 2.3529412 5.38258575 5.372549 5.38258575 1.4901961 0 3.2352941-.6332454 4.1372549-1.5831135l-1.8235294-1.8799472c-.5490196.5343008-1.5294118.9102903-2.3333333.9102903zm-.0196079-5.6002639c1.1568628 0 1.9019608.6530343 2.1764706 1.66226913h-4.5294117c.372549-1.02902375 1.2745098-1.66226913 2.3529411-1.66226913z"/><path d="m99.1960784 3.97757256c0-.67282322.4313726-1.14775726.9607846-1.14775726.392157 0 .784313.13852243.980392.33641161l.686274-1.76121372c-.588235-.53430079-1.509804-.89050132-2.3333329-.89050132-1.7843137 0-3.0392157 1.28627969-3.0392157 3.12664908v.89050132h-1.3921569v2.33509235h1.3921569v7.89577838h2.745098v-7.89577838h2.1960786v-2.33509235h-2.1960786z"/><path d="m108.215686 15c3 0 5.509804-2.4538259 5.509804-5.36279683 0-2.90897098-2.509804-5.34300792-5.509804-5.34300792-3.019608 0-5.549019 2.43403694-5.549019 5.34300792 0 2.90897093 2.529411 5.36279683 5.549019 5.36279683zm0-2.4340369c-1.529411 0-2.803921-1.3456465-2.803921-2.92875993 0-1.58311346 1.27451-2.90897098 2.803921-2.90897098 1.509804 0 2.784314 1.32585752 2.784314 2.90897098 0 1.58311343-1.27451 2.92875993-2.784314 2.92875993z"/><path d="m118.529412 6.43139842v-1.89973615h-2.862745v10.23087073h2.862745v-4.88786282c0-1.91952506 1.352941-3.14643799 3.470588-3.14643799v-2.43403694c-1.54902 0-2.803922.81134565-3.470588 2.13720317z"/></g></g><g transform="translate(26 16)"><path d="m51.0788247 18.3791285c-1.1527922-2.7738206-3.4912352-5.7687527-5.3224223-6.7154936 1.3061327 2.5287496 2.2124847 5.244383 2.686882 8.0503777l.0047919.0444961c-2.9997241-7.4753507-8.0846055-10.49424227-12.2398599-17.05913356-.2101587-.33200962-.4203174-.6647038-.6249996-1.01588099-.117059-.20057488-.2108432-.38129765-.2923053-.54764474-.1725081-.33337873-.305312-.68660959-.3956734-1.05079334 0-.03491235-.0260131-.06434825-.0602409-.06845559-.0164293-.00479189-.0335432-.00479189-.0499726 0-.0034228 0-.0088992.006161-.0130065.00753012-.0041074.00136911-.0130066.00753011-.0191676.01026834l.0102683-.01779846c-6.6641519 3.90196876-8.9266092 11.12403372-9.131976 14.73848902-2.6622379.1827764-5.2081014 1.1637451-7.3042117 2.8142094-.2183733-.1855147-.447015-.3587073-.6845559-.5188934-.6044629-2.1159624-.630476-4.3558293-.0746166-6.4847983-2.4472874 1.1856509-4.6221216 2.8662357-6.3862222 4.9356482h-.012322c-1.0514779-1.3328303-.9775458-5.72767936-.9173049-6.64566885-.3107884.12527373-.60788567.28272159-.88581537.47028992-.92825783.66265013-1.79627474 1.40607783-2.59309784 2.22138393-.90840571.9207277-1.73808748 1.9160721-2.4801461 2.9757646v.0041074-.0047919c-1.7052288 2.4178515-2.91552367 5.1492296-3.5596908 8.0366865l-.0355969.1752463c-.04997259.2334336-.23001079 1.4026551-.26081581 1.6566253 0 .0198522-.00410734.0383352-.006161.0581873-.23206446 1.2068721-.37582121 2.429489-.43058568 3.6575823v.1369112c.02601313 14.5379141 11.9954734 26.4868377 26.5333875 26.4868377 12.8518529 0 23.9471353-9.3373428 26.1431907-22.0002582.0444961-.342278.0807776-.6811332.1204818-1.0268339.5462757-4.5167-.0451806-9.0984328-1.7209735-13.3283038zm-30.5791131 20.7694267c.1239047.0595564.2402792.1239046.3676066.1807228l.018483.0116374c-.1286965-.06161-.257393-.1259583-.3860896-.1923602z" fill="url(#a)"/><path d="m51.0788247 18.3791285c-1.1527922-2.7738206-3.4912352-5.7687527-5.3224223-6.7154936 1.3061327 2.5287496 2.2124847 5.244383 2.686882 8.0503777v.0253286l.0047919.0280667c2.0447685 5.850215 1.7483558 12.2706649-.8255745 17.907983-3.0407974 6.5245025-10.3984044 13.2119293-21.9194806 12.8833424-12.4452267-.3525463-23.41181253-9.5906284-25.45863474-21.6867316-.37308297-1.9078573 0-2.8751349.18756833-4.425654-.25602392 1.2041338-.39841155 2.4301735-.42647834 3.661005v.1369112c.02601312 14.5379141 11.99547345 26.4868378 26.53338755 26.4868378 12.8518529 0 23.9471353-9.3373428 26.1431907-22.0002583.0444961-.3422779.0807775-.6811331.1204818-1.0268338.5462756-4.5167-.0451807-9.0984328-1.7209736-13.3283038z" fill="url(#b)"/><path d="m51.0788247 18.3791285c-1.1527922-2.7738206-3.4912352-5.7687527-5.3224223-6.7154936 1.3061327 2.5287496 2.2124847 5.244383 2.686882 8.0503777v.0253286l.0047919.0280667c2.0447685 5.850215 1.7483558 12.2706649-.8255745 17.907983-3.0407974 6.5245025-10.3984044 13.2119293-21.9194806 12.8833424-12.4452267-.3525463-23.41181253-9.5906284-25.45863474-21.6867316-.37308297-1.9078573 0-2.8751349.18756833-4.425654-.25602392 1.2041338-.39841155 2.4301735-.42647834 3.661005v.1369112c.02601312 14.5379141 11.99547345 26.4868378 26.53338755 26.4868378 12.8518529 0 23.9471353-9.3373428 26.1431907-22.0002583.0444961-.3422779.0807775-.6811331.1204818-1.0268338.5462756-4.5167-.0451807-9.0984328-1.7209736-13.3283038z" fill="url(#c)"/><path d="m38.1817911 21.493858c.0575027.0403888.1108981.0807776.164978.1211664-.6667575-1.1815435-1.4957547-2.2638265-2.4644013-3.2139901-8.2488989-8.2488988-2.1611431-17.88060066-1.1349938-18.37348092l.0102684-.01506023c-6.6641519 3.90196875-8.9266092 11.12403375-9.131976 14.73848895.3094193-.0212212.6161003-.0472343.9323652-.0472343 4.8069516.0095838 9.2538269 2.6067889 11.6237595 6.7887411z" fill="url(#d)"/><path d="m26.5717227 23.1436378c-.0438116.6599119-2.3754091 2.9360603-3.1907152 2.9360603-7.5438062 0-8.7691613 4.5639343-8.7691613 4.5639343.3340632 3.843097 3.012046 7.0098527 6.249311 8.6801691.147864.0766703.2977818.1458104.4476995.2135815.2594467.1150054.519578.2211115.7790247.319003 1.1110342.3929351 2.2747793.6174695 3.4522155.6660729 13.2256204.6202077 15.7858596-15.8132418 6.2424654-20.5845965 2.2508199-.29299 4.5317603.2608158 6.3971751 1.5532574-2.3699326-4.1819522-6.8168078-6.7791573-11.6237595-6.7887411-.3148957 0-.6229459.0260131-.9323652.0472343-2.662238.1827765-5.2081014 1.1637451-7.3042117 2.8142094.4045726.342278.8611714.7995613 1.8229725 1.7476713 1.800382 1.7736844 6.4177117 3.6110325 6.4279801 3.8266676z" fill="url(#e)"/><path d="m26.5717227 23.1436378c-.0438116.6599119-2.3754091 2.9360603-3.1907152 2.9360603-7.5438062 0-8.7691613 4.5639343-8.7691613 4.5639343.3340632 3.843097 3.012046 7.0098527 6.249311 8.6801691.147864.0766703.2977818.1458104.4476995.2135815.2594467.1150054.519578.2211115.7790247.319003 1.1110342.3929351 2.2747793.6174695 3.4522155.6660729 13.2256204.6202077 15.7858596-15.8132418 6.2424654-20.5845965 2.2508199-.29299 4.5317603.2608158 6.3971751 1.5532574-2.3699326-4.1819522-6.8168078-6.7791573-11.6237595-6.7887411-.3148957 0-.6229459.0260131-.9323652.0472343-2.662238.1827765-5.2081014 1.1637451-7.3042117 2.8142094.4045726.342278.8611714.7995613 1.8229725 1.7476713 1.800382 1.7736844 6.4177117 3.6110325 6.4279801 3.8266676z" fill="url(#f)"/><path d="m17.0837776 16.6882754c.2149506.1369112.3922505.2560239.5476447.3634992-.6044629-2.1159624-.630476-4.3558293-.0746166-6.4847982-2.4472874 1.1856508-4.6221216 2.8662356-6.3862222 4.9356482.1293811-.0034228 3.9779545-.072563 5.9131941 1.1856508z" fill="url(#g)"/><path d="m.23959457 28.8733708c2.04750677 12.0961032 13.01340813 21.3376081 25.45863473 21.6867316 11.5210762.3258487 18.8800523-6.3622627 21.9194806-12.8833424 2.5739303-5.637318 2.870343-12.057768.8255745-17.9079829v-.0253286c0-.0198521-.0041074-.0314896 0-.0253286l.0047919.0444962c.9412644 6.1452585-2.184418 12.0961031-7.0714627 16.1281375l-.0150602.0342278c-9.5221729 7.7560186-18.6336122 4.6782551-20.4750677 3.4227796-.1286965-.06161-.257393-.1259583-.3860895-.1923602-5.551064-2.6533388-7.8450109-7.7080997-7.3521306-12.0481843-2.686882.0397043-5.15744432-1.5142377-6.28490793-3.9533104 2.96001981-1.8133886 6.65936003-1.9619373 9.75492193-.391566 3.1407425 1.4252454 6.7175472 1.566264 9.9602886.391566-.0102683-.2156351-4.627598-2.0536678-6.4279801-3.8266676-.961801-.94811-1.4183998-1.4047088-1.8229724-1.7476713-.2183733-.1855146-.447015-.3587073-.6845559-.5188934-.1574479-.1074753-.3347479-.2238498-.5476448-.3634992-1.9352395-1.2582138-5.7838129-1.1890736-5.9111403-1.1856508h-.0123221c-1.0514778-1.3328304-.9775458-5.72767942-.9173049-6.64566891-.31078838.12527373-.60788565.28272159-.88581535.47028991-.92825783.66265014-1.79627474 1.4060779-2.59309783 2.221384-.91182849.918674-1.74493305 1.9112801-2.49041445 2.968919v.0041073-.0047919c-1.7052288 2.4178516-2.91552367 5.1492297-3.55969079 8.0366866-.01300656.0540799-.95564007 4.1751065-.4908266 6.3122901z" fill="url(#h)"/><path d="m35.8816832 18.3996652c.9686466.9515327 1.7983284 2.0345002 2.4644013 3.2174128.1458104.1102135.2820371.2197425.397727.3258487 6.0151929 5.5449029 2.8634974 13.3830682 2.6286948 13.9375585 4.8863601-4.0258733 8.0093043-9.9808253 7.0714626-16.1281375-3.0010931-7.4821962-8.091451-10.50108783-12.2398598-17.06597912-.2101587-.33200963-.4203174-.6647038-.6249996-1.01588099-.1170591-.20057489-.2108432-.38129765-.2923054-.54764474-.1725081-.33337873-.3053119-.68660959-.3956733-1.05079334 0-.03491235-.0260131-.06434826-.0602409-.06845559-.0164294-.00479189-.0335433-.00479189-.0499726 0-.0034228 0-.0088992.006161-.0130066.00753011-.0041073.00136912-.0130065.00753012-.0191675.01026834-1.0261494.48671926-7.1125361 10.12458213 1.1363628 18.36663543z" fill="url(#i)"/><path d="m38.743127 21.9456649c-.11569-.1061062-.2519166-.2156351-.397727-.3258486-.0540799-.0403888-.1074753-.0807776-.164978-.1211664-1.8654149-1.2924416-4.1463552-1.8462474-6.3971751-1.5532574 9.5427096 4.7713548 6.9824704 21.2006969-6.2424654 20.5845966-1.1774362-.0486035-2.3411813-.2731379-3.4522156-.666073-.2594467-.0972069-.5195779-.2033131-.7790246-.319003-.1499177-.0684556-.2998355-.1369112-.4476996-.2135815l.018483.0116375c1.8441937 1.2588983 10.9528948 4.3346081 20.4750677-3.4227796l.0150602-.0342278c.2375409-.5544903 3.3892364-8.3926556-2.6286947-13.9375586z" fill="url(#j)"/><path d="m14.6125307 30.6395251s1.2246706-4.5639343 8.7691614-4.5639343c.8153061 0 3.1489572-2.2761485 3.1907151-2.9360604-3.2427414 1.174698-6.8195461 1.0336795-9.9602886-.391566-3.0955619-1.5703713-6.79490212-1.4218226-9.75492193.391566 1.12746361 2.4390728 3.59802593 3.9930147 6.28490793 3.9533105-.4915112 4.3380308 1.8017512 9.3921072 7.3521306 12.0481842.1239046.0595564.2402791.1239046.3676065.1807228-3.2400032-1.6737393-5.9152477-4.8391259-6.249311-8.6801691z" fill="url(#k)"/><path d="m51.0788247 18.3791285c-1.1527922-2.7738206-3.4912352-5.7687527-5.3224223-6.7154936 1.3061327 2.5287496 2.2124847 5.244383 2.686882 8.0503777l.0047919.0444961c-2.9997241-7.4753507-8.0846055-10.49424227-12.2398599-17.05913356-.2101587-.33200962-.4203174-.6647038-.6249996-1.01588099-.117059-.20057488-.2108432-.38129765-.2923053-.54764474-.1725081-.33337873-.305312-.68660959-.3956734-1.05079334 0-.03491235-.0260131-.06434825-.0602409-.06845559-.0164293-.00479189-.0335432-.00479189-.0499726 0-.0034228 0-.0088992.006161-.0130065.00753012-.0041074.00136911-.0130066.00753011-.0191676.01026834l.0102683-.01779846c-6.6641519 3.90196876-8.9266092 11.12403372-9.131976 14.73848902.3094193-.0212213.6161004-.0472344.9323652-.0472344 4.8069517.0095838 9.253827 2.606789 11.6237596 6.7887411-1.8654149-1.2924416-4.1463553-1.8462473-6.3971751-1.5532574 9.5427095 4.7713548 6.9824704 21.2006969-6.2424655 20.5845966-1.1774362-.0486035-2.3411812-.2731378-3.4522155-.6660729-.2594467-.097207-.5195779-.2033131-.7790246-.3190031-.1499178-.0684556-.2998355-.1369112-.4476996-.2135814l.018483.0116374c-.1286965-.06161-.257393-.1259583-.3860895-.1923602.1239046.0595564.2402791.1239046.3676065.1807228-3.2400032-1.6744238-5.9152477-4.8398104-6.249311-8.6801691 0 0 1.2246705-4.5639344 8.7691613-4.5639344.8153061 0 3.1489573-2.2761484 3.1907152-2.9360603-.0102684-.2156351-4.627598-2.0536678-6.4279801-3.8266676-.9618011-.94811-1.4183999-1.4047088-1.8229724-1.7476713-.2183734-.1855146-.4470151-.3587073-.684556-.5188934-.6044628-2.1159623-.630476-4.3558293-.0746166-6.4847982-2.4472874 1.1856508-4.6221215 2.8662356-6.3862222 4.9356482h-.012322c-1.0514779-1.3328304-.9775458-5.72767941-.9173049-6.64566891-.31078839.12527374-.60788566.2827216-.88581536.47028992-.92825783.66265014-1.79627474 1.40607789-2.59309784 2.22138399-.9084057.9207277-1.73808748 1.916072-2.4801461 2.9757646v.0041073-.0047919c-1.7052288 2.4178515-2.91552367 5.1492297-3.5596908 8.0366865l-.0355969.1752464c-.04997259.2334335-.27382237 1.4190844-.3059965 1.6737392-.20468222 1.223986-.3354324 2.4589249-.39156599 3.6986556v.1369112c.02601313 14.5379141 11.99547339 26.4868378 26.53338759 26.4868378 12.8518528 0 23.9471352-9.3373428 26.1431906-22.0002583.0444962-.3422779.0807776-.6811331.1204819-1.0268339.5462756-4.5166999-.0451807-9.0984327-1.7209736-13.3283038z" fill="url(#l)"/></g></g></g></svg>